# xmcd
#
# Track frame offsets:
#	150
#	14617
#	26802
#	37720
#	50947
#	62770
#	72127
#	85887
#	97040
#	108835
#	121110
#	133522
#	145220
#	157640
#	168207
#	180352
#
# Disc length: 2553 seconds
#
# Revision: 1
# Processed by: cddbd v1.5.2PL0 Copyright (c) Steve Scherf et al.
# Submitted via: audiograbber 1.83.01
#
DISCID=c909f710
DTITLE=Various Artist - Will The Circle Be Unbroken
DYEAR=1900
DGENRE=
TTITLE0=Gene Autry - Rudolph The Red Nosed Reindeer
TTITLE1=Ray Price - Release Me
TTITLE2=Charlie Walker - Pick Me Up On Your Way Down
TTITLE3=Johnny Bond - Ten Little Bottles
TTITLE4=Bob Wills - San Antonio Rose
TTITLE5=Lefty Frizzell - If You've Got The Money, I've Got The Time
TTITLE6=Johnny Cash - Don't Take Your Guns To Town
TTITLE7=Marty Robbins - Singing The Blues
TTITLE8=Roy Acuff - Wabash Cannon Ball
TTITLE9=The Carter Family - Will The Circle Be Unbroken
TTITLE10=Floyd Tillman - Slipping Around
TTITLE11=George Morgan - Candy Kisses
TTITLE12=Lonzo And Oscar - I'm My Own Grandpa
TTITLE13=Lester Flatt And Earl Scruggs - Foggy Mountain Breakdown
TTITLE14=Carl Smith - Loose Talk
TTITLE15=Johnny Horton - The Battle Of New Orleans
EXTD=
EXTT0=
EXTT1=
EXTT2=
EXTT3=
EXTT4=
EXTT5=
EXTT6=
EXTT7=
EXTT8=
EXTT9=
EXTT10=
EXTT11=
EXTT12=
EXTT13=
EXTT14=
EXTT15=
PLAYORDER=
